HIERARCHY
ROOT Reference
{
  OFFSET 0 0 0
  CHANNELS 6 Xposition Yposition Zposition Zrotation Xrotation Yrotation
  JOINT Hips
  {
    OFFSET 251.394 724.17 483.536
    CHANNELS 3 Zrotation Xrotation Yrotation
    JOINT RightUpLeg
    {
      OFFSET -0.450515 -23.4426 -1.37224
      CHANNELS 3 Zrotation Xrotation Yrotation
      JOINT RightLeg
      {
        OFFSET 112.821 0.0872427 -0.321027
        CHANNELS 3 Zrotation Xrotation Yrotation
        JOINT RightFoot
        {
          OFFSET 105.718 0.000193788 0.0213165
          CHANNELS 3 Zrotation Xrotation Yrotation
          JOINT RightToeBase
          {
            OFFSET 37.638 -0.000116272 0.00224792
            CHANNELS 3 Zrotation Xrotation Yrotation
            JOINT RightToeEnd
            {
              OFFSET 21.2112 0.114605 -0.000138184
              CHANNELS 3 Zrotation Xrotation Yrotation
              End Site
              {
                OFFSET 0 0 0
              }
            }
          }
        }
      }
    }
    JOINT LeftUpLeg
    {
      OFFSET -0.449508 23.4315 -1.37054
      CHANNELS 3 Zrotation Xrotation Yrotation
      JOINT LeftLeg
      {
        OFFSET 112.821 -0.0485242 -0.372458
        CHANNELS 3 Zrotation Xrotation Yrotation
        JOINT LeftFoot
        {
          OFFSET 105.716 0.00496094 -0.0229443
          CHANNELS 3 Zrotation Xrotation Yrotation
          JOINT LeftToeBase
          {
            OFFSET 37.639 0 0.00158905
            CHANNELS 3 Zrotation Xrotation Yrotation
            JOINT LeftToeEnd
            {
              OFFSET 21.2113 -0.125031 -0.00017438
              CHANNELS 3 Zrotation Xrotation Yrotation
              End Site
              {
                OFFSET 0 0 0
              }
            }
          }
        }
      }
    }
    JOINT Spine
    {
      OFFSET -5.01225 0.000463591 -9.60395
      CHANNELS 3 Zrotation Xrotation Yrotation
      JOINT Spine1
      {
        OFFSET 26.0222 -0.000271301 -0.000155029
        CHANNELS 3 Zrotation Xrotation Yrotation
        JOINT Spine2
        {
          OFFSET 27.173 -0.000155029 -0.000310058
          CHANNELS 3 Zrotation Xrotation Yrotation
          JOINT Spine3
          {
            OFFSET 36.3953 -0.000232544 7.75146e-005
            CHANNELS 3 Zrotation Xrotation Yrotation
            JOINT Neck
            {
              OFFSET 36.4331 0 -3.00261
              CHANNELS 3 Zrotation Xrotation Yrotation
              JOINT Head
              {
                OFFSET 23.0407 -0.000232544 -0.000310058
                CHANNELS 3 Zrotation Xrotation Yrotation
                End Site
                {
                  OFFSET 0 0 0
                }
              }
            }
            JOINT LeftShoulder
            {
              OFFSET 20.1317 6.74168 -12.6061
              CHANNELS 3 Zrotation Xrotation Yrotation
              JOINT LeftArm
              {
                OFFSET 34.2172 -5.81359e-005 7.75146e-005
                CHANNELS 3 Zrotation Xrotation Yrotation
                JOINT LeftForeArm
                {
                  OFFSET 65.4129 -0.0821605 0.0585235
                  CHANNELS 3 Zrotation Xrotation Yrotation
                  JOINT LeftHand
                  {
                    OFFSET 67.3883 0.0359667 0.0112396
                    CHANNELS 3 Zrotation Xrotation Yrotation
                    JOINT LeftHandThumb1
                    {
                      OFFSET 8.78386 2.85353 -6.05362
                      CHANNELS 3 Zrotation Xrotation Yrotation
                      JOINT LeftHandThumb2
                      {
                        OFFSET 8.25498 -0.000116272 -0.000174407
                        CHANNELS 3 Zrotation Xrotation Yrotation
                        JOINT LeftHandThumb3
                        {
                          OFFSET 7.24822 0.000310058 5.81358e-005
                          CHANNELS 3 Zrotation Xrotation Yrotation
                          JOINT LeftHandThumb4
                          {
                            OFFSET 7.0004 -3.87568e-005 -0.000310057
                            CHANNELS 3 Zrotation Xrotation Yrotation
                            End Site
                            {
                              OFFSET 0 0 0
                            }
                          }
                        }
                      }
                    }
                    JOINT LeftHandIndex1
                    {
                      OFFSET 24.0991 -1.01537 -5.40558
                      CHANNELS 3 Zrotation Xrotation Yrotation
                      JOINT LeftHandIndex2
                      {
                        OFFSET 7.26759 -0.000290679 -0.000465086
                        CHANNELS 3 Zrotation Xrotation Yrotation
                        JOINT LeftHandIndex3
                        {
                          OFFSET 7.13628 -1.93787e-005 0.000232543
                          CHANNELS 3 Zrotation Xrotation Yrotation
                          JOINT LeftHandIndex4
                          {
                            OFFSET 5.46699 9.68932e-005 -0.000387571
                            CHANNELS 3 Zrotation Xrotation Yrotation
                            End Site
                            {
                              OFFSET 0 0 0
                            }
                          }
                        }
                      }
                    }
                    JOINT LeftHandMiddle1
                    {
                      OFFSET 24.4604 -2.52837 0.918567
                      CHANNELS 3 Zrotation Xrotation Yrotation
                      JOINT LeftHandMiddle2
                      {
                        OFFSET 7.41627 -5.81359e-005 0.000116271
                        CHANNELS 3 Zrotation Xrotation Yrotation
                        JOINT LeftHandMiddle3
                        {
                          OFFSET 8.76829 3.87573e-005 -7.75142e-005
                          CHANNELS 3 Zrotation Xrotation Yrotation
                          JOINT LeftHandMiddle4
                          {
                            OFFSET 6.07588 -0.00013565 -5.81356e-005
                            CHANNELS 3 Zrotation Xrotation Yrotation
                            End Site
                            {
                              OFFSET 0 0 0
                            }
                          }
                        }
                      }
                    }
                    JOINT LeftHandRing1
                    {
                      OFFSET 22.465 -1.97467 6.3466
                      CHANNELS 3 Zrotation Xrotation Yrotation
                      JOINT LeftHandRing2
                      {
                        OFFSET 7.36666 -0.000232544 0.000387571
                        CHANNELS 3 Zrotation Xrotation Yrotation
                        JOINT LeftHandRing3
                        {
                          OFFSET 8.07624 -0.000465087 -0.000203475
                          CHANNELS 3 Zrotation Xrotation Yrotation
                          JOINT LeftHandRing4
                          {
                            OFFSET 6.04433 0.00013565 3.87571e-005
                            CHANNELS 3 Zrotation Xrotation Yrotation
                            End Site
                            {
                              OFFSET 0 0 0
                            }
                          }
                        }
                      }
                    }
                    JOINT LeftHandPinky1
                    {
                      OFFSET 19.5278 0.352933 10.4295
                      CHANNELS 3 Zrotation Xrotation Yrotation
                      JOINT LeftHandPinky2
                      {
                        OFFSET 6.16525 5.8136e-005 -0.000251921
                        CHANNELS 3 Zrotation Xrotation Yrotation
                        JOINT LeftHandPinky3
                        {
                          OFFSET 6.14448 -0.000329434 -0.00510625
                          CHANNELS 3 Zrotation Xrotation Yrotation
                          JOINT LeftHandPinky4
                          {
                            OFFSET 4.98555 0.000116272 0.000116271
                            CHANNELS 3 Zrotation Xrotation Yrotation
                            End Site
                            {
                              OFFSET 0 0 0
                            }
                          }
                        }
                      }
                    }
                  }
                }
              }
            }
            JOINT RightShoulder
            {
              OFFSET 20.1309 -6.74152 -12.6063
              CHANNELS 3 Zrotation Xrotation Yrotation
              JOINT RightArm
              {
                OFFSET 34.2171 7.75146e-005 7.75146e-005
                CHANNELS 3 Zrotation Xrotation Yrotation
                JOINT RightForeArm
                {
                  OFFSET 65.4492 0.242543 -0.176501
                  CHANNELS 3 Zrotation Xrotation Yrotation
                  JOINT RightHand
                  {
                    OFFSET 67.3888 -0.0867388 0.0597442
                    CHANNELS 3 Zrotation Xrotation Yrotation
                    JOINT RightHandThumb1
                    {
                      OFFSET 8.78307 -2.85357 -6.05302
                      CHANNELS 3 Zrotation Xrotation Yrotation
                      JOINT RightHandThumb2
                      {
                        OFFSET 8.25493 -7.75145e-005 0
                        CHANNELS 3 Zrotation Xrotation Yrotation
                        JOINT RightHandThumb3
                        {
                          OFFSET 7.24797 -0.000174408 0.000155029
                          CHANNELS 3 Zrotation Xrotation Yrotation
                          JOINT RightHandThumb4
                          {
                            OFFSET 7.00062 0 0
                            CHANNELS 3 Zrotation Xrotation Yrotation
                            End Site
                            {
                              OFFSET 0 0 0
                            }
                          }
                        }
                      }
                    }
                    JOINT RightHandIndex1
                    {
                      OFFSET 24.0991 1.01525 -5.40578
                      CHANNELS 3 Zrotation Xrotation Yrotation
                      JOINT RightHandIndex2
                      {
                        OFFSET 7.26773 7.75144e-005 0.000232543
                        CHANNELS 3 Zrotation Xrotation Yrotation
                        JOINT RightHandIndex3
                        {
                          OFFSET 7.13572 -0.000310058 3.87571e-005
                          CHANNELS 3 Zrotation Xrotation Yrotation
                          JOINT RightHandIndex4
                          {
                            OFFSET 5.46717 0 3.87572e-005
                            CHANNELS 3 Zrotation Xrotation Yrotation
                            End Site
                            {
                              OFFSET 0 0 0
                            }
                          }
                        }
                      }
                    }
                    JOINT RightHandMiddle1
                    {
                      OFFSET 24.4603 2.52899 0.918547
                      CHANNELS 3 Zrotation Xrotation Yrotation
                      JOINT RightHandMiddle2
                      {
                        OFFSET 7.41641 -0.000116272 -0.000116272
                        CHANNELS 3 Zrotation Xrotation Yrotation
                        JOINT RightHandMiddle3
                        {
                          OFFSET 8.76765 -3.87577e-005 0.000232543
                          CHANNELS 3 Zrotation Xrotation Yrotation
                          JOINT RightHandMiddle4
                          {
                            OFFSET 6.07609 -0.000193787 -0.000116271
                            CHANNELS 3 Zrotation Xrotation Yrotation
                            End Site
                            {
                              OFFSET 0 0 0
                            }
                          }
                        }
                      }
                    }
                    JOINT RightHandRing1
                    {
                      OFFSET 22.465 1.97571 6.34696
                      CHANNELS 3 Zrotation Xrotation Yrotation
                      JOINT RightHandRing2
                      {
                        OFFSET 7.36684 0.000193786 0.000155029
                        CHANNELS 3 Zrotation Xrotation Yrotation
                        JOINT RightHandRing3
                        {
                          OFFSET 8.07614 -0.000271301 0
                          CHANNELS 3 Zrotation Xrotation Yrotation
                          JOINT RightHandRing4
                          {
                            OFFSET 6.04468 0.000232543 0
                            CHANNELS 3 Zrotation Xrotation Yrotation
                            End Site
                            {
                              OFFSET 0 0 0
                            }
                          }
                        }
                      }
                    }
                    JOINT RightHandPinky1
                    {
                      OFFSET 19.5277 -0.352346 10.4296
                      CHANNELS 3 Zrotation Xrotation Yrotation
                      JOINT RightHandPinky2
                      {
                        OFFSET 6.16508 0 0.000232543
                        CHANNELS 3 Zrotation Xrotation Yrotation
                        JOINT RightHandPinky3
                        {
                          OFFSET 6.14396 -0.000155048 -0.0048834
                          CHANNELS 3 Zrotation Xrotation Yrotation
                          JOINT RightHandPinky4
                          {
                            OFFSET 4.98577 -7.75146e-005 -7.75143e-005
                            CHANNELS 3 Zrotation Xrotation Yrotation
                            End Site
                            {
                              OFFSET 0 0 0
                            }
                          }
                        }
                      }
                    }
                  }
                }
              }
            }
          }
        }
      }
    }
  }
}
MOTION
Frames:	4
Frame Time:	0.0333333
0 0 0 -90 -7.01671e-015 -180 1.36442 -7.34351 -106.052 -176.42 14.6572 -26.7248 0.706637 -0.0622399 -95.2457 9.96763 14.7786 41.0907 -0.561763 0.164563 52.024 -0.0107492 -0.00266193 -86.4962 -169.894 10.9972 -24.9191 -9.64923 -4.31801 -98.1074 7.63365 -7.08342 27.0151 0.582253 -0.122731 56.819 -5.94447e-005 -2.13717e-005 -86.4974 1.92916 0.776482 123.07 -2.27062 -3.64167 -6.00793 -3.12827 -3.56829 -8.29308 -2.66324 0.313411 7.03348 0.894957 -28.2324 23.4214 -11.6351 -25.747 47.388 95.6733 20.1566 -25.9885 42.8506 -4.31277 -23.7448 2.56128 2.04559 118.312 -10.0797 29.0955 25.8149 -149.04 0.685057 155.334 0.00038838 -8.11485e-005 25.8347 0.000273395 -1.59804e-005 28.0495 0.000344068 -0.00123072 -0.000117817 158.267 73.5886 -130.557 -0.000396319 -0.00036604 9.78649 0.00113218 -0.000734162 12.2123 -0.000560076 -0.000500949 -0.00050629 151.999 82.1019 -125.63 0.000178106 -0.000372341 32.1353 0.00136235 -0.000474294 33.8637 -0.00051365 -0.000279105 9.39139e-005 85.2511 84.6 -49.9265 0.000395089 -0.000839961 33.2752 0.00200477 -2.37187e-005 36.1342 -0.000611083 -0.000652394 0.000685577 87.4398 72.3983 -48.4331 0.00144464 -0.00105785 34.8968 0.000698374 0.000158108 39.2137 -3.09605e-005 -1.73953e-005 -0.000419202 -84.841 -23.714 -17.137 -38.5057 2.44559 17.2537 -2.55092 -6.93266 117.631 38.9936 -55.3554 20.2104 147.556 -21.6904 160.205 -0.000115213 0.000196516 25.8347 7.96019e-005 0.000302952 28.0495 -7.62308e-005 -9.15528e-005 -179.96 177.937 -81.2517 -136.128 -0.00010949 -0.000566433 27.5066 0.000174493 0.000309634 29.9325 -0.000106833 -3.05176e-005 179.96 147.125 -85.3812 -168.508 -9.78866e-005 0.000217356 43.4913 -0.000278671 0.000508448 18.9685 -3.04965e-005 3.05176e-005 179.96 -85.2599 -84.5995 -32.215 9.58172e-005 -0.000222313 44.6311 -0.000584126 0.00104225 21.239 -1.52904e-005 -4.57764e-005 179.96 -87.4406 -72.3985 -30.7137 -0.000274543 0.000812524 46.2528 -0.000262967 0.000307099 24.3185 -1.52693e-005 -1.52588e-005 179.96 
0 0 0 -90 -7.01671e-015 -180 1.06483 -7.6245 -105.55 -176.681 14.77 -26.138 0.661911 -0.0613745 -95.2664 9.4375 14.726 41.2085 -0.561763 0.16456 52.024 -0.0107492 -0.00266179 -86.4962 -170.142 11.099 -24.4267 -9.71799 -4.31166 -98.1065 7.17746 -7.10337 26.9966 0.582254 -0.122733 56.819 -5.95375e-005 -2.79012e-005 -86.4974 1.86307 0.861104 123.036 -2.22989 -3.72463 -6.30658 -3.098 -3.62789 -8.59759 -2.62274 0.277009 6.72634 0.784444 -28.0326 23.9599 -11.3606 -25.6386 48.0591 95.6876 20.1527 -25.9877 42.3104 -4.44942 -24.7124 2.5567 2.419 118.173 -10.4861 28.6883 26.2914 -149.04 0.685071 155.334 0.000388244 -8.10382e-005 25.8347 0.000273569 -1.87747e-005 28.0495 0.000344069 -0.00123072 -0.000117817 158.267 73.5886 -130.557 -0.000396345 -0.0003661 9.78649 0.00113218 -0.000736615 12.2123 -0.000560076 -0.000500949 -0.00050629 151.999 82.1019 -125.63 0.000178071 -0.000379309 32.1353 0.00136236 -0.00047768 33.8637 -0.00051365 -0.000279105 9.39139e-005 85.2511 84.6 -49.9265 0.000395242 -0.000839898 33.2752 0.00200465 -2.37532e-005 36.1342 -0.000611083 -0.000652394 0.000685578 87.4398 72.3983 -48.433 0.00144479 -0.00105771 34.8968 0.000698159 0.000157936 39.2137 -3.09369e-005 -1.73953e-005 -0.000419202 -84.841 -23.714 -17.137 -37.8731 2.56428 17.5731 -2.57291 -7.78215 117.665 39.1078 -55.2955 19.6536 147.556 -21.6905 160.205 -0.000118673 0.000192268 25.8347 7.97337e-005 0.000297532 28.0495 -7.62518e-005 -6.10352e-005 -179.96 177.937 -81.2517 -136.128 -0.000109912 -0.000566669 27.5066 0.000174796 0.000302581 29.9325 -0.000106833 -3.05176e-005 179.96 147.125 -85.3812 -168.508 -9.32415e-005 0.000217573 43.4913 -0.000280503 0.000507824 18.9685 -3.0507e-005 1.52588e-005 179.96 -85.26 -84.5995 -32.2151 9.68305e-005 -0.000221295 44.6311 -0.000583689 0.00104243 21.2391 -1.53009e-005 -6.10352e-005 179.96 -87.4406 -72.3985 -30.7137 -0.000274402 0.000812718 46.2528 -0.000263464 0.000302706 24.3185 -1.52693e-005 -1.52588e-005 179.96 
0 0 0 -90 -7.01671e-015 -180 0.504975 -8.22041 -104.913 -177.334 15.0598 -25.3017 0.703113 -0.0733235 -95.2852 9.18829 14.7406 41.2503 -0.561763 0.164557 52.024 -0.0107493 -0.00266147 -86.4962 -170.747 11.337 -23.7922 -9.7195 -4.31592 -98.1169 6.97652 -7.09446 26.9783 0.582255 -0.122736 56.819 -5.98397e-005 -3.93639e-005 -86.4974 1.68859 1.0861 122.945 -2.27392 -3.73816 -6.57534 -3.1558 -3.62615 -8.86146 -2.67728 0.292226 6.46998 0.791675 -27.805 24.3896 -11.0837 -25.4972 48.5168 95.7291 20.1414 -25.9853 42.1023 -4.52678 -25.6711 2.52187 2.62205 117.475 -11.1272 27.962 27.4567 -149.04 0.685084 155.334 0.000387686 -8.08502e-005 25.8347 0.000272774 -2.56406e-005 28.0495 0.000344068 -0.00123072 -0.000117817 158.266 73.5886 -130.557 -0.000396373 -0.000368614 9.78649 0.00113215 -0.000740101 12.2123 -0.000560076 -0.000500949 -0.000506289 151.999 82.1019 -125.63 0.000177852 -0.00038958 32.1353 0.00136224 -0.000481917 33.8637 -0.00051365 -0.000279105 9.39139e-005 85.2509 84.6 -49.9263 0.000395134 -0.000843443 33.2752 0.00200451 -2.37712e-005 36.1342 -0.000611084 -0.000652394 0.000685577 87.4397 72.3983 -48.433 0.0014443 -0.00105802 34.8968 0.000697833 0.000157748 39.2137 -3.09369e-005 -1.73954e-005 -0.000419202 -84.841 -23.714 -17.1371 -36.985 2.86581 17.8819 -2.65756 -8.66006 118.361 38.9224 -55.7269 18.6158 147.556 -21.6905 160.205 -0.000115602 0.00019019 25.8347 7.95338e-005 0.000291145 28.0495 -7.62624e-005 -4.57764e-005 -179.96 177.937 -81.2517 -136.128 -0.00010944 -0.000566375 27.5066 0.000174633 0.000294147 29.9325 -0.000106843 -4.57764e-005 179.96 147.125 -85.3812 -168.508 -9.64055e-005 0.000203843 43.4913 -0.00027946 0.000508189 18.9685 -3.0507e-005 1.52588e-005 179.96 -85.2601 -84.5995 -32.2153 9.78075e-005 -0.00022029 44.6311 -0.00058354 0.00104007 21.2391 -1.53009e-005 -6.10352e-005 179.96 -87.4406 -72.3985 -30.7137 -0.000274448 0.000809309 46.2528 -0.000262953 0.00030293 24.3185 -1.52693e-005 -1.52588e-005 179.96 
0 0 0 -90 -7.01671e-015 -180 -0.230034 -9.04586 -104.193 -178.293 15.4779 -24.3093 0.804213 -0.0938847 -95.2865 9.15456 14.8033 41.235 -0.561763 0.164548 52.024 -0.0107496 -0.00266101 -86.4962 -171.61 11.6771 -23.0731 -9.66828 -4.32895 -98.1308 6.96962 -7.0623 26.9633 0.582255 -0.122741 56.819 -6.02876e-005 -5.82458e-005 -86.4974 1.44165 1.40834 122.819 -2.37641 -3.69863 -6.81485 -3.27418 -3.57795 -9.0884 -2.7978 0.345482 6.25753 0.879379 -27.5583 24.7238 -10.8096 -25.3318 48.8132 95.7959 20.1233 -25.9814 42.1265 -4.56814 -26.5814 2.46357 2.70244 116.361 -11.9016 26.9909 29.0756 -149.04 0.685098 155.334 0.000387393 -8.03309e-005 25.8347 0.000273195 -3.52805e-005 28.0495 0.000344068 -0.00123072 -0.000117817 158.266 73.5886 -130.557 -0.00039642 -0.000368736 9.78649 0.0011321 -0.000745021 12.2123 -0.000560075 -0.000500949 -0.00050629 151.999 82.1019 -125.63 0.000177138 -0.000410583 32.1353 0.00136214 -0.000489193 33.8637 -0.00051365 -0.000279105 9.39139e-005 85.2508 84.6 -49.9262 0.000395225 -0.000848284 33.2752 0.00200433 -2.37892e-005 36.1342 -0.000611083 -0.000652394 0.000685578 87.4396 72.3983 -48.4329 0.00144446 -0.00105787 34.8968 0.000697763 0.000157817 39.2137 -3.09369e-005 -1.73953e-005 -0.000419202 -84.841 -23.714 -17.137 -35.926 3.30256 18.2042 -2.78556 -9.54376 119.521 38.482 -56.518 17.2013 147.556 -21.6905 160.205 -0.000115601 0.000184512 25.8347 7.93515e-005 0.000279471 28.0495 -7.63045e-005 1.52588e-005 -179.96 177.937 -81.2517 -136.128 -0.000109286 -0.000569618 27.5066 0.000174675 0.000276787 29.9325 -0.000106854 -6.10352e-005 179.96 147.125 -85.3812 -168.508 -9.71996e-005 0.000185634 43.4913 -0.000278738 0.000508444 18.9685 -3.05176e-005 7.01671e-015 179.96 -85.2603 -84.5995 -32.2155 9.80052e-005 -0.000220038 44.6311 -0.000583349 0.00103595 21.2391 -1.53115e-005 -7.6294e-005 179.96 -87.4407 -72.3985 -30.7137 -0.000274405 0.000806997 46.2528 -0.000262617 0.000300646 24.3185 -1.52799e-005 -3.05176e-005 179.96 
